<svg id="Layer_1" data-name="Layer 1" xmlns="http://www.w3.org/2000/svg" viewBox="0 0 653.56 253.59"><defs><style>.cls-1{fill:#ad6b3e;}.cls-2{fill:#965d35;}.cls-3{fill:#5f8c3d;}.cls-4{fill:#6c9d40;}.cls-5{fill:#5f9468;}.cls-6{fill:#70ae84;}.cls-7{fill:#8ea93d;}.cls-8{fill:#733a26;}.cls-9{fill:#602e1b;}.cls-10{fill:#ffd25d;}.cls-11{fill:#fef494;}.cls-12{fill:#faa31e;}.cls-13{fill:#f58220;}.cls-14{fill:none;}</style></defs><title>Untitled-2</title><rect class="cls-1" x="626.93" y="199.98" width="4.09" height="9.1"/><rect class="cls-2" x="631.02" y="199.98" width="4.09" height="9.1"/><path class="cls-3" d="M653.07,96.21L642.81,78.46h2.7A2.83,2.83,0,0,0,648,74.21l-9.49-16.43h2.62a2,2,0,0,0,1.7-3L632.73,37.38a2,2,0,0,0-1.7-1v65.34h18.85A3.68,3.68,0,0,0,653.07,96.21Z" transform="translate(0 98.24)"/><path class="cls-4" d="M631,36.39a2,2,0,0,0-1.7,1L619.24,54.83a2,2,0,0,0,1.7,3h2.62l-9.49,16.43a2.83,2.83,0,0,0,2.45,4.24h2.7L609,96.21a3.68,3.68,0,0,0,3.19,5.52H631V36.39Z" transform="translate(0 98.24)"/><rect class="cls-1" x="589.51" y="199.61" width="2.28" height="5.07"/><rect class="cls-2" x="591.79" y="199.61" width="2.28" height="5.07"/><path class="cls-3" d="M604.08,98.29l-5.72-9.9h1.5A1.58,1.58,0,0,0,601.24,86l-5.29-9.16h1.46a1.1,1.1,0,0,0,.95-1.65l-5.62-9.73a1.09,1.09,0,0,0-1-.55v36.43h10.51A2.05,2.05,0,0,0,604.08,98.29Z" transform="translate(0 98.24)"/><path class="cls-4" d="M591.79,64.94a1.09,1.09,0,0,0-.95.55l-5.62,9.73a1.1,1.1,0,0,0,1,1.65h1.46L582.35,86a1.58,1.58,0,0,0,1.37,2.37h1.5l-5.72,9.9a2.05,2.05,0,0,0,1.78,3.08h10.51V64.94Z" transform="translate(0 98.24)"/><path class="cls-5" d="M366.09,100.38l-26-8.43s-87-4.72-88-4.59-44.28-2.75-44.28-2.75l-124.39-3L36.13,91v28.49l331.62-9.33Z" transform="translate(0 98.24)"/><path class="cls-5" d="M41.62,108.17L32,91.6h2.52a2.64,2.64,0,0,0,2.29-4L28,72.3h2.45A1.84,1.84,0,0,0,32,69.54L22.63,53.25a1.84,1.84,0,0,0-3.18,0L10,69.54a1.84,1.84,0,0,0,1.59,2.75h2.45L5.23,87.64a2.64,2.64,0,0,0,2.29,4H10L0.47,108.17a3.44,3.44,0,0,0,3,5.15H17.22v8.49h7.63v-8.49H38.64A3.44,3.44,0,0,0,41.62,108.17Z" transform="translate(0 98.24)"/><path class="cls-5" d="M60.91,95.74L51.2,78.92h2.56a2.68,2.68,0,0,0,2.32-4l-9-15.57h2.49a1.86,1.86,0,0,0,1.61-2.8L41.64,40a1.86,1.86,0,0,0-3.23,0L28.86,56.53a1.86,1.86,0,0,0,1.61,2.8H33L24,74.9a2.68,2.68,0,0,0,2.32,4h2.56L19.14,95.74a3.49,3.49,0,0,0,3,5.23h14v8.62H43.9V101h14A3.49,3.49,0,0,0,60.91,95.74Z" transform="translate(0 98.24)"/><path class="cls-5" d="M94,80.54L84.29,63.71h2.56a2.68,2.68,0,0,0,2.32-4l-9-15.57h2.49a1.86,1.86,0,0,0,1.61-2.8L74.74,24.79a1.86,1.86,0,0,0-3.23,0L62,41.33a1.86,1.86,0,0,0,1.61,2.8h2.49l-9,15.57a2.68,2.68,0,0,0,2.32,4H62L52.24,80.54a3.49,3.49,0,0,0,3,5.23h14v8.62H77V85.77H91A3.49,3.49,0,0,0,94,80.54Z" transform="translate(0 98.24)"/><path class="cls-5" d="M132.89,92.65l-9.71-16.82h2.56a2.68,2.68,0,0,0,2.32-4l-9-15.57h2.49a1.86,1.86,0,0,0,1.61-2.8l-9.55-16.54a1.86,1.86,0,0,0-3.23,0l-9.55,16.54a1.86,1.86,0,0,0,1.61,2.8h2.49L96,71.81a2.68,2.68,0,0,0,2.32,4h2.56L91.12,92.65a3.49,3.49,0,0,0,3,5.23h14v8.62h7.75V97.88h14A3.49,3.49,0,0,0,132.89,92.65Z" transform="translate(0 98.24)"/><path class="cls-5" d="M149.05,65.84l-8.52-14.76h2.24a2.35,2.35,0,0,0,2-3.53L136.93,33.9h2.18a1.63,1.63,0,0,0,1.42-2.45l-8.37-14.5a1.63,1.63,0,0,0-2.83,0l-8.37,14.5a1.63,1.63,0,0,0,1.42,2.45h2.18l-7.88,13.66a2.35,2.35,0,0,0,2,3.53h2.24l-8.52,14.76a3.06,3.06,0,0,0,2.65,4.59h12.27V78h6.8V70.43h12.27A3.06,3.06,0,0,0,149.05,65.84Z" transform="translate(0 98.24)"/><path class="cls-5" d="M168.8,79.8L160.28,65h2.24a2.35,2.35,0,0,0,2-3.53l-7.88-13.66h2.18a1.63,1.63,0,0,0,1.42-2.45l-8.37-14.5a1.63,1.63,0,0,0-2.83,0l-8.37,14.5a1.63,1.63,0,0,0,1.42,2.45h2.18L136.4,61.52a2.35,2.35,0,0,0,2,3.53h2.24L132.16,79.8a3.06,3.06,0,0,0,2.65,4.59h12.27V92h6.8V84.39h12.27A3.06,3.06,0,0,0,168.8,79.8Z" transform="translate(0 98.24)"/><path class="cls-5" d="M217.16,93.76L209.77,81h1.94a2,2,0,0,0,1.76-3.06l-6.83-11.83h1.89A1.42,1.42,0,0,0,209.76,64l-7.26-12.57a1.42,1.42,0,0,0-2.45,0L192.8,64A1.42,1.42,0,0,0,194,66.08h1.89l-6.83,11.83A2,2,0,0,0,190.84,81h1.94L185.4,93.76a2.65,2.65,0,0,0,2.3,4h10.63v6.55h5.89V97.74h10.63A2.65,2.65,0,0,0,217.16,93.76Z" transform="translate(0 98.24)"/><path class="cls-5" d="M244.46,89.7l-9.21-15.95h2.42a2.54,2.54,0,0,0,2.2-3.81l-8.52-14.76h2.36a1.77,1.77,0,0,0,1.53-2.65L226.2,36.86a1.77,1.77,0,0,0-3.06,0l-9.05,15.68a1.77,1.77,0,0,0,1.53,2.65H218l-8.52,14.76a2.54,2.54,0,0,0,2.2,3.81h2.42L204.87,89.7a3.31,3.31,0,0,0,2.86,5H221v8.17h7.35V94.66H241.6A3.31,3.31,0,0,0,244.46,89.7Z" transform="translate(0 98.24)"/><path class="cls-5" d="M264.46,103.35l-7.25-12.56h1.91a2,2,0,0,0,1.73-3l-6.71-11.63H256a1.39,1.39,0,0,0,1.21-2.09l-7.13-12.35a1.39,1.39,0,0,0-2.41,0l-7.13,12.35a1.39,1.39,0,0,0,1.21,2.09h1.86l-6.71,11.63a2,2,0,0,0,1.73,3h1.91l-7.25,12.56a2.6,2.6,0,0,0,2.26,3.91H246v6.44h5.79v-6.44h10.45A2.6,2.6,0,0,0,264.46,103.35Z" transform="translate(0 98.24)"/><path class="cls-5" d="M293.46,107.91l-7.25-12.56h1.91a2,2,0,0,0,1.73-3l-6.71-11.63H285a1.39,1.39,0,0,0,1.21-2.09l-7.13-12.35a1.39,1.39,0,0,0-2.41,0l-7.13,12.35a1.39,1.39,0,0,0,1.21,2.09h1.86l-6.71,11.63a2,2,0,0,0,1.73,3h1.91l-7.25,12.56a2.6,2.6,0,0,0,2.26,3.91H275v6.44h5.79v-6.44h10.45A2.6,2.6,0,0,0,293.46,107.91Z" transform="translate(0 98.24)"/><path class="cls-5" d="M319.37,99.65l-8.52-14.76h2.24a2.35,2.35,0,0,0,2-3.53l-7.88-13.66h2.18a1.63,1.63,0,0,0,1.42-2.45l-8.37-14.5a1.63,1.63,0,0,0-2.83,0l-8.37,14.5a1.63,1.63,0,0,0,1.42,2.45h2.18L287,81.36a2.35,2.35,0,0,0,2,3.53h2.24l-8.52,14.76a3.06,3.06,0,0,0,2.65,4.59h12.27v7.56h6.8v-7.56h12.27A3.06,3.06,0,0,0,319.37,99.65Z" transform="translate(0 98.24)"/><path class="cls-5" d="M336.68,110.7l-8.52-14.76h2.24a2.35,2.35,0,0,0,2-3.53l-7.88-13.66h2.18a1.63,1.63,0,0,0,1.42-2.45l-8.37-14.5a1.63,1.63,0,0,0-2.83,0l-8.37,14.5A1.63,1.63,0,0,0,310,78.76h2.18l-7.88,13.66a2.35,2.35,0,0,0,2,3.53h2.24L300,110.7a3.06,3.06,0,0,0,2.65,4.59H315v7.56h6.8v-7.56H334A3.06,3.06,0,0,0,336.68,110.7Z" transform="translate(0 98.24)"/><path class="cls-5" d="M355.42,121.31l-8.52-14.76h2.24a2.35,2.35,0,0,0,2-3.53l-7.88-13.66h2.18a1.63,1.63,0,0,0,1.42-2.45l-8.37-14.5a1.63,1.63,0,0,0-2.83,0l-8.37,14.5a1.63,1.63,0,0,0,1.42,2.45h2.18L323,103a2.35,2.35,0,0,0,2,3.53h2.24l-8.52,14.76a3.06,3.06,0,0,0,2.65,4.59H333.7v7.56h6.8v-7.56h12.27A3.06,3.06,0,0,0,355.42,121.31Z" transform="translate(0 98.24)"/><path class="cls-5" d="M372.88,108.5l-4.49-7.78h1.18a1.24,1.24,0,0,0,1.07-1.86l-4.16-7.2h1.15a0.86,0.86,0,0,0,.75-1.29L364,82.73a0.86,0.86,0,0,0-1.49,0l-4.41,7.65a0.86,0.86,0,0,0,.75,1.29H360l-4.16,7.2a1.24,1.24,0,0,0,1.07,1.86h1.18l-4.49,7.78a1.61,1.61,0,0,0,1.4,2.42h6.47v4H365v-4h6.47A1.61,1.61,0,0,0,372.88,108.5Z" transform="translate(0 98.24)"/><path class="cls-6" d="M386.7,100.32l-26-8.43s-87-4.72-88-4.59-44.28-2.75-44.28-2.75L104,81.54,56.74,90.93v28.49l331.62-9.33Z" transform="translate(0 98.24)"/><path class="cls-6" d="M62.23,108.12L52.66,91.54h2.52a2.64,2.64,0,0,0,2.29-4L48.61,72.24h2.45a1.84,1.84,0,0,0,1.59-2.75L43.25,53.2a1.84,1.84,0,0,0-3.18,0L30.66,69.49a1.84,1.84,0,0,0,1.59,2.75H34.7L25.84,87.58a2.64,2.64,0,0,0,2.29,4h2.52l-9.57,16.58a3.44,3.44,0,0,0,3,5.15H37.84v8.49h7.63v-8.49H59.25A3.44,3.44,0,0,0,62.23,108.12Z" transform="translate(0 98.24)"/><path class="cls-6" d="M81.52,95.68L71.81,78.86h2.56a2.68,2.68,0,0,0,2.32-4l-9-15.57h2.49a1.86,1.86,0,0,0,1.61-2.8L62.25,39.94a1.86,1.86,0,0,0-3.23,0L49.48,56.47a1.86,1.86,0,0,0,1.61,2.8h2.49l-9,15.57a2.68,2.68,0,0,0,2.32,4h2.56L39.75,95.68a3.49,3.49,0,0,0,3,5.23h14v8.62h7.75v-8.62h14A3.49,3.49,0,0,0,81.52,95.68Z" transform="translate(0 98.24)"/><path class="cls-6" d="M114.62,80.48l-9.71-16.82h2.56a2.68,2.68,0,0,0,2.32-4l-9-15.57h2.49a1.86,1.86,0,0,0,1.61-2.8L95.35,24.73a1.86,1.86,0,0,0-3.23,0L82.58,41.27a1.86,1.86,0,0,0,1.61,2.8h2.49l-9,15.57a2.68,2.68,0,0,0,2.32,4h2.56L72.85,80.48a3.49,3.49,0,0,0,3,5.23h14v8.62h7.75V85.71h14A3.49,3.49,0,0,0,114.62,80.48Z" transform="translate(0 98.24)"/><path class="cls-6" d="M153.5,92.59l-9.71-16.82h2.56a2.68,2.68,0,0,0,2.32-4l-9-15.57h2.49a1.86,1.86,0,0,0,1.61-2.8l-9.55-16.54a1.86,1.86,0,0,0-3.23,0l-9.55,16.54a1.86,1.86,0,0,0,1.61,2.8h2.49l-9,15.57a2.68,2.68,0,0,0,2.32,4h2.56l-9.71,16.82a3.49,3.49,0,0,0,3,5.23h14v8.62h7.75V97.82h14A3.49,3.49,0,0,0,153.5,92.59Z" transform="translate(0 98.24)"/><path class="cls-6" d="M169.67,65.79L161.15,51h2.24a2.35,2.35,0,0,0,2-3.53l-7.88-13.66h2.18a1.63,1.63,0,0,0,1.42-2.45l-8.37-14.5a1.63,1.63,0,0,0-2.83,0l-8.37,14.5A1.63,1.63,0,0,0,143,33.85h2.18L137.27,47.5a2.35,2.35,0,0,0,2,3.53h2.24L133,65.79a3.06,3.06,0,0,0,2.65,4.59H148v7.56h6.8V70.37H167A3.06,3.06,0,0,0,169.67,65.79Z" transform="translate(0 98.24)"/><path class="cls-6" d="M189.41,79.74L180.89,65h2.24a2.35,2.35,0,0,0,2-3.53l-7.88-13.66h2.18a1.63,1.63,0,0,0,1.42-2.45l-8.37-14.5a1.63,1.63,0,0,0-2.83,0l-8.37,14.5a1.63,1.63,0,0,0,1.42,2.45h2.18L157,61.46a2.35,2.35,0,0,0,2,3.53h2.24l-8.52,14.76a3.06,3.06,0,0,0,2.65,4.59h12.27v7.56h6.8V84.33h12.27A3.06,3.06,0,0,0,189.41,79.74Z" transform="translate(0 98.24)"/><path class="cls-6" d="M237.77,93.71l-7.38-12.79h1.94a2,2,0,0,0,1.76-3.06L227.26,66h1.89a1.42,1.42,0,0,0,1.23-2.13l-7.26-12.57a1.42,1.42,0,0,0-2.45,0L213.41,63.9A1.42,1.42,0,0,0,214.64,66h1.89l-6.83,11.83a2,2,0,0,0,1.76,3.06h1.94L206,93.71a2.65,2.65,0,0,0,2.3,4h10.63v6.55h5.89V97.68h10.63A2.65,2.65,0,0,0,237.77,93.71Z" transform="translate(0 98.24)"/><path class="cls-6" d="M265.08,89.65L255.87,73.7h2.42a2.54,2.54,0,0,0,2.2-3.81L252,55.13h2.36a1.77,1.77,0,0,0,1.53-2.65L246.81,36.8a1.77,1.77,0,0,0-3.06,0L234.7,52.48a1.77,1.77,0,0,0,1.53,2.65h2.36l-8.52,14.76a2.54,2.54,0,0,0,2.2,3.81h2.42l-9.21,15.95a3.31,3.31,0,0,0,2.86,5h13.26v8.17H249V94.61h13.26A3.31,3.31,0,0,0,265.08,89.65Z" transform="translate(0 98.24)"/><path class="cls-6" d="M285.08,103.29l-7.25-12.56h1.91a2,2,0,0,0,1.73-3L274.75,76.1h1.86A1.39,1.39,0,0,0,277.81,74l-7.13-12.35a1.39,1.39,0,0,0-2.41,0L261.14,74a1.39,1.39,0,0,0,1.21,2.09h1.86l-6.71,11.63a2,2,0,0,0,1.73,3h1.91l-7.25,12.56a2.6,2.6,0,0,0,2.26,3.91h10.45v6.44h5.79V107.2h10.45A2.6,2.6,0,0,0,285.08,103.29Z" transform="translate(0 98.24)"/><path class="cls-6" d="M314.08,107.85l-7.25-12.56h1.91a2,2,0,0,0,1.73-3l-6.71-11.63h1.86a1.39,1.39,0,0,0,1.21-2.09l-7.13-12.35a1.39,1.39,0,0,0-2.41,0l-7.13,12.35a1.39,1.39,0,0,0,1.21,2.09h1.86l-6.71,11.63a2,2,0,0,0,1.73,3h1.91l-7.25,12.56a2.6,2.6,0,0,0,2.26,3.91h10.45v6.44h5.79v-6.44h10.45A2.6,2.6,0,0,0,314.08,107.85Z" transform="translate(0 98.24)"/><path class="cls-6" d="M340,99.59l-8.52-14.76h2.24a2.35,2.35,0,0,0,2-3.53l-7.88-13.66H330a1.63,1.63,0,0,0,1.42-2.45l-8.37-14.5a1.63,1.63,0,0,0-2.83,0l-8.37,14.5a1.63,1.63,0,0,0,1.42,2.45h2.18l-7.88,13.66a2.35,2.35,0,0,0,2,3.53h2.24l-8.52,14.76a3.06,3.06,0,0,0,2.65,4.59h12.27v7.56h6.8v-7.56h12.27A3.06,3.06,0,0,0,340,99.59Z" transform="translate(0 98.24)"/><path class="cls-6" d="M357.3,110.64l-8.52-14.76H351a2.35,2.35,0,0,0,2-3.53l-7.88-13.66h2.18a1.63,1.63,0,0,0,1.42-2.45l-8.37-14.5a1.63,1.63,0,0,0-2.83,0l-8.37,14.5a1.63,1.63,0,0,0,1.42,2.45h2.18L324.9,92.36a2.35,2.35,0,0,0,2,3.53h2.24l-8.52,14.76a3.06,3.06,0,0,0,2.65,4.59h12.27v7.56h6.8v-7.56h12.27A3.06,3.06,0,0,0,357.3,110.64Z" transform="translate(0 98.24)"/><path class="cls-6" d="M376,121.25l-8.52-14.76h2.24a2.35,2.35,0,0,0,2-3.53L363.9,89.31h2.18a1.63,1.63,0,0,0,1.42-2.45l-8.37-14.5a1.63,1.63,0,0,0-2.83,0l-8.37,14.5a1.63,1.63,0,0,0,1.42,2.45h2.18L343.63,103a2.35,2.35,0,0,0,2,3.53h2.24l-8.52,14.76a3.06,3.06,0,0,0,2.65,4.59h12.27v7.56h6.8v-7.56h12.27A3.06,3.06,0,0,0,376,121.25Z" transform="translate(0 98.24)"/><path class="cls-6" d="M393.49,108.45L389,100.67h1.18a1.24,1.24,0,0,0,1.07-1.86l-4.16-7.2h1.15a0.86,0.86,0,0,0,.75-1.29l-4.41-7.65a0.86,0.86,0,0,0-1.49,0l-4.41,7.65a0.86,0.86,0,0,0,.75,1.29h1.15l-4.16,7.2a1.24,1.24,0,0,0,1.07,1.86h1.18l-4.49,7.78a1.61,1.61,0,0,0,1.4,2.42H382v4h3.58v-4h6.47A1.61,1.61,0,0,0,393.49,108.45Z" transform="translate(0 98.24)"/><path class="cls-1" d="M237.92,101.24v10.31h2.45v-9.81A6.35,6.35,0,0,1,237.92,101.24Z" transform="translate(0 98.24)"/><path class="cls-2" d="M240.37,111.55h2.45V101.24a6.35,6.35,0,0,1-2.45.5v9.81Z" transform="translate(0 98.24)"/><path class="cls-3" d="M240.37,59.1v42.64a6.35,6.35,0,0,0,2.45-.5c3.69-1.54,6.4-6.46,6.4-12.29C249.22,81.88,245.26,59.1,240.37,59.1Z" transform="translate(0 98.24)"/><path class="cls-4" d="M240.37,59.1c-4.89,0-8.85,22.78-8.85,29.85,0,5.83,2.7,10.75,6.4,12.29a6.35,6.35,0,0,0,2.45.5V59.1Z" transform="translate(0 98.24)"/><path class="cls-1" d="M40.95,100.65v8.72H43v-8.29A5.37,5.37,0,0,1,40.95,100.65Z" transform="translate(0 98.24)"/><path class="cls-2" d="M43,109.37h2.07v-8.72a5.37,5.37,0,0,1-2.07.42v8.29Z" transform="translate(0 98.24)"/><path class="cls-3" d="M43,65v36.06a5.37,5.37,0,0,0,2.07-.42c3.12-1.3,5.41-5.46,5.41-10.39C50.5,84.28,47.15,65,43,65Z" transform="translate(0 98.24)"/><path class="cls-4" d="M43,65c-4.13,0-7.48,19.27-7.48,25.24,0,4.93,2.29,9.09,5.41,10.39a5.37,5.37,0,0,0,2.07.42V65Z" transform="translate(0 98.24)"/><rect class="cls-1" x="186.95" y="197" width="5.75" height="12.79"/><rect class="cls-2" x="192.7" y="197" width="5.75" height="12.79"/><path class="cls-3" d="M223.69,91L209.28,66h3.79a4,4,0,0,0,3.44-6L203.18,37h3.69a2.77,2.77,0,0,0,2.4-4.15L195.09,8.27a2.74,2.74,0,0,0-2.4-1.38V98.76h26.51A5.18,5.18,0,0,0,223.69,91Z" transform="translate(0 98.24)"/><path class="cls-4" d="M192.7,6.89a2.74,2.74,0,0,0-2.4,1.38L176.14,32.81a2.77,2.77,0,0,0,2.4,4.15h3.69l-13.34,23.1a4,4,0,0,0,3.44,6h3.79L161.71,91a5.18,5.18,0,0,0,4.48,7.76H192.7V6.89Z" transform="translate(0 98.24)"/><rect class="cls-1" x="108.49" y="196.11" width="5.72" height="12.73"/><rect class="cls-2" x="114.21" y="196.11" width="5.72" height="12.73"/><path class="cls-3" d="M145.05,90.14L130.71,65.3h3.78a4,4,0,0,0,3.43-5.94l-13.28-23h3.67a2.75,2.75,0,0,0,2.38-4.13L116.59,7.82a2.73,2.73,0,0,0-2.38-1.38V97.87h26.38A5.15,5.15,0,0,0,145.05,90.14Z" transform="translate(0 98.24)"/><path class="cls-4" d="M114.21,6.44a2.73,2.73,0,0,0-2.38,1.38L97.73,32.24a2.75,2.75,0,0,0,2.38,4.13h3.67l-13.28,23a4,4,0,0,0,3.43,5.94h3.78L83.36,90.14a5.15,5.15,0,0,0,4.46,7.73h26.38V6.44Z" transform="translate(0 98.24)"/><rect class="cls-1" x="70.23" y="199.3" width="4.29" height="9.55"/><rect class="cls-2" x="74.52" y="199.3" width="4.29" height="9.55"/><path class="cls-3" d="M97.66,95.26L86.9,76.62h2.83a3,3,0,0,0,2.57-4.45l-10-17.24H85.1a2.06,2.06,0,0,0,1.79-3.1L76.31,33.51a2,2,0,0,0-1.79-1v68.57H94.31A3.86,3.86,0,0,0,97.66,95.26Z" transform="translate(0 98.24)"/><path class="cls-4" d="M74.52,32.48a2,2,0,0,0-1.79,1L62.16,51.83A2.06,2.06,0,0,0,64,54.93H66.7l-10,17.24a3,3,0,0,0,2.57,4.45h2.83L51.39,95.26a3.86,3.86,0,0,0,3.35,5.79H74.52V32.48Z" transform="translate(0 98.24)"/><path class="cls-1" d="M339.77,98.54v7.85h1.87V98.93A4.83,4.83,0,0,1,339.77,98.54Z" transform="translate(0 98.24)"/><path class="cls-2" d="M341.63,106.39h1.87V98.54a4.83,4.83,0,0,1-1.87.38v7.47Z" transform="translate(0 98.24)"/><path class="cls-3" d="M341.63,66.46V98.93a4.83,4.83,0,0,0,1.87-.38c2.81-1.17,4.87-4.92,4.87-9.36C348.37,83.81,345.35,66.46,341.63,66.46Z" transform="translate(0 98.24)"/><path class="cls-4" d="M341.63,66.46c-3.72,0-6.74,17.35-6.74,22.73,0,4.44,2.06,8.19,4.87,9.36a4.83,4.83,0,0,0,1.87.38V66.46Z" transform="translate(0 98.24)"/><rect class="cls-1" x="276.45" y="196.57" width="4.63" height="10.31"/><rect class="cls-2" x="281.08" y="196.57" width="4.63" height="10.31"/><path class="cls-3" d="M306.06,92.07L294.44,71.95h3.06a3.2,3.2,0,0,0,2.78-4.81L289.53,48.52h3a2.23,2.23,0,0,0,1.93-3.34L283,25.4a2.21,2.21,0,0,0-1.93-1.11v74h21.36A4.17,4.17,0,0,0,306.06,92.07Z" transform="translate(0 98.24)"/><path class="cls-4" d="M281.08,24.29a2.21,2.21,0,0,0-1.93,1.11L267.74,45.18a2.23,2.23,0,0,0,1.93,3.34h3L261.89,67.14a3.2,3.2,0,0,0,2.78,4.81h3.06L256.11,92.07a4.17,4.17,0,0,0,3.61,6.26h21.36v-74Z" transform="translate(0 98.24)"/><rect class="cls-1" x="365.31" y="197.77" width="3.08" height="6.86"/><rect class="cls-2" x="368.39" y="197.77" width="3.08" height="6.86"/><path class="cls-3" d="M385,95.37L377.29,82h2a2.13,2.13,0,0,0,1.85-3.2L374,66.38h2a1.48,1.48,0,0,0,1.28-2.23L369.68,51a1.47,1.47,0,0,0-1.28-.74V99.53h14.22A2.78,2.78,0,0,0,385,95.37Z" transform="translate(0 98.24)"/><path class="cls-4" d="M368.39,50.25a1.47,1.47,0,0,0-1.29.74l-7.6,13.16a1.48,1.48,0,0,0,1.28,2.23h2l-7.16,12.39a2.13,2.13,0,0,0,1.85,3.2h2l-7.73,13.39a2.78,2.78,0,0,0,2.4,4.16h14.22V50.25Z" transform="translate(0 98.24)"/><rect class="cls-1" x="392.43" y="200.41" width="1.79" height="3.98"/><rect class="cls-2" x="394.21" y="200.41" width="1.79" height="3.98"/><path class="cls-3" d="M403.85,99.75L399.37,92h1.18a1.24,1.24,0,0,0,1.07-1.85L397.47,83h1.15a0.86,0.86,0,0,0,.74-1.29L395,74a0.85,0.85,0,0,0-.74-0.43v28.55h8.24A1.61,1.61,0,0,0,403.85,99.75Z" transform="translate(0 98.24)"/><path class="cls-4" d="M394.21,73.61a0.85,0.85,0,0,0-.74.43l-4.4,7.63a0.86,0.86,0,0,0,.74,1.29H391l-4.15,7.18A1.24,1.24,0,0,0,387.88,92h1.18l-4.48,7.76a1.61,1.61,0,0,0,1.39,2.41h8.24V73.61Z" transform="translate(0 98.24)"/><ellipse class="cls-7" cx="318.88" cy="239.78" rx="11.32" ry="2.55"/><ellipse class="cls-7" cx="124.07" cy="229.96" rx="9.9" ry="2.23"/><rect class="cls-1" x="316.15" y="233.71" width="2.73" height="6.07"/><rect class="cls-2" x="318.88" y="233.71" width="2.73" height="6.07"/><path class="cls-3" d="M333.59,131.78l-6.84-11.85h1.8a1.89,1.89,0,0,0,1.63-2.83l-6.33-11h1.75a1.31,1.31,0,0,0,1.14-2L320,92.52a1.3,1.3,0,0,0-1.14-.66v43.61h12.58A2.46,2.46,0,0,0,333.59,131.78Z" transform="translate(0 98.24)"/><path class="cls-4" d="M318.88,91.86a1.3,1.3,0,0,0-1.14.66L311,104.17a1.31,1.31,0,0,0,1.14,2h1.75l-6.33,11a1.89,1.89,0,0,0,1.64,2.83H311l-6.84,11.85a2.46,2.46,0,0,0,2.13,3.68h12.58V91.86Z" transform="translate(0 98.24)"/><ellipse class="cls-7" cx="65.89" cy="239.72" rx="13.76" ry="3.1"/><rect class="cls-1" x="62.57" y="232.34" width="3.32" height="7.38"/><rect class="cls-2" x="65.89" y="232.34" width="3.32" height="7.38"/><path class="cls-3" d="M83.78,129.61L75.46,115.2h2.19a2.3,2.3,0,0,0,2-3.44l-7.7-13.34h2.13A1.6,1.6,0,0,0,75.45,96L67.27,81.87a1.58,1.58,0,0,0-1.38-.8v53h15.3A3,3,0,0,0,83.78,129.61Z" transform="translate(0 98.24)"/><path class="cls-4" d="M65.89,81.07a1.58,1.58,0,0,0-1.38.8L56.33,96a1.6,1.6,0,0,0,1.38,2.39h2.13l-7.7,13.34a2.3,2.3,0,0,0,2,3.44h2.19L48,129.61a3,3,0,0,0,2.59,4.48h15.3v-53Z" transform="translate(0 98.24)"/><ellipse class="cls-7" cx="557.47" cy="235.2" rx="9.9" ry="2.23"/><path class="cls-1" d="M555.1,127v10h2.37v-9.47A6.13,6.13,0,0,1,555.1,127Z" transform="translate(0 98.24)"/><path class="cls-2" d="M557.47,137h2.37V127a6.13,6.13,0,0,1-2.37.48V137Z" transform="translate(0 98.24)"/><path class="cls-3" d="M557.47,86.31v41.18a6.13,6.13,0,0,0,2.37-.48c3.57-1.48,6.18-6.23,6.18-11.87C566,108.31,562.19,86.31,557.47,86.31Z" transform="translate(0 98.24)"/><path class="cls-4" d="M557.47,86.31c-4.72,0-8.54,22-8.54,28.83,0,5.63,2.61,10.38,6.18,11.87a6.13,6.13,0,0,0,2.37.48V86.31Z" transform="translate(0 98.24)"/><ellipse class="cls-7" cx="208.72" cy="237.43" rx="19.8" ry="2.05"/><path class="cls-4" d="M208.72,139.19v-10.9c-3.88,0-6.69,3.35-6.69,4.75,0,0-4.32-.07-5.57,3,0,0-5-.67-5.54,3.14h17.8Z" transform="translate(0 98.24)"/><path class="cls-3" d="M208.72,139.19v-10.9c3.88,0,6.69,3.35,6.69,4.75,0,0,4.32-.07,5.57,3,0,0,5-.67,5.54,3.14h-17.8Z" transform="translate(0 98.24)"/><ellipse class="cls-7" cx="275.7" cy="220.22" rx="20.3" ry="2.1"/><path class="cls-4" d="M275.7,122V110.79c-4,0-6.86,3.43-6.86,4.87,0,0-4.43-.07-5.71,3.08,0,0-5.13-.69-5.68,3.22H275.7Z" transform="translate(0 98.24)"/><path class="cls-3" d="M275.7,122V110.79c4,0,6.86,3.43,6.86,4.87,0,0,4.43-.07,5.71,3.08,0,0,5.13-.69,5.68,3.22H275.7Z" transform="translate(0 98.24)"/><ellipse class="cls-7" cx="369.16" cy="243.29" rx="16.92" ry="1.75"/><path class="cls-4" d="M369.16,145v-9.32c-3.32,0-5.72,2.86-5.72,4.06,0,0-3.69-.06-4.76,2.57,0,0-4.27-.57-4.73,2.69h15.21Z" transform="translate(0 98.24)"/><path class="cls-3" d="M369.16,145v-9.32c3.32,0,5.72,2.86,5.72,4.06,0,0,3.69-.06,4.76,2.57,0,0,4.27-.57,4.73,2.69H369.16Z" transform="translate(0 98.24)"/><ellipse class="cls-7" cx="445.93" cy="227.69" rx="19.15" ry="1.98"/><path class="cls-4" d="M445.93,129.45V118.9c-3.75,0-6.47,3.24-6.47,4.6,0,0-4.18-.07-5.39,2.91,0,0-4.84-.65-5.35,3h17.21Z" transform="translate(0 98.24)"/><path class="cls-3" d="M445.93,129.45V118.9c3.75,0,6.47,3.24,6.47,4.6,0,0,4.18-.07,5.39,2.91,0,0,4.84-.65,5.35,3H445.93Z" transform="translate(0 98.24)"/><ellipse class="cls-7" cx="626.93" cy="240.63" rx="19.15" ry="1.98"/><path class="cls-4" d="M626.93,142.38V131.84c-3.75,0-6.47,3.24-6.47,4.6,0,0-4.17-.07-5.39,2.91,0,0-4.84-.65-5.35,3h17.21Z" transform="translate(0 98.24)"/><path class="cls-3" d="M626.93,142.38V131.84c3.75,0,6.47,3.24,6.47,4.6,0,0,4.17-.07,5.39,2.91,0,0,4.84-.65,5.35,3H626.93Z" transform="translate(0 98.24)"/><ellipse class="cls-7" cx="383.44" cy="212.06" rx="11.99" ry="1.24"/><path class="cls-4" d="M383.44,113.82v-6.6c-2.35,0-4.05,2-4.05,2.88,0,0-2.61,0-3.37,1.82,0,0-3-.41-3.35,1.9h10.78Z" transform="translate(0 98.24)"/><path class="cls-3" d="M383.44,113.82v-6.6c2.35,0,4.05,2,4.05,2.88,0,0,2.61,0,3.37,1.82,0,0,3-.41,3.35,1.9H383.44Z" transform="translate(0 98.24)"/><ellipse class="cls-7" cx="41.66" cy="215.78" rx="10.38" ry="1.07"/><path class="cls-4" d="M41.66,117.54v-5.71c-2,0-3.51,1.75-3.51,2.49,0,0-2.26,0-2.92,1.58,0,0-2.62-.35-2.9,1.65h9.32Z" transform="translate(0 98.24)"/><path class="cls-3" d="M41.66,117.54v-5.71c2,0,3.51,1.75,3.51,2.49,0,0,2.26,0,2.92,1.58,0,0,2.62-.35,2.9,1.65H41.66Z" transform="translate(0 98.24)"/><path class="cls-8" d="M410.2,84.33v0.92a3.47,3.47,0,0,0-3.67,0A2.79,2.79,0,0,1,410.2,84.33Z" transform="translate(0 98.24)"/><path class="cls-9" d="M410.2,84.33v0.92a3.47,3.47,0,0,1,3.67,0A2.79,2.79,0,0,0,410.2,84.33Z" transform="translate(0 98.24)"/><ellipse class="cls-7" cx="171.34" cy="215.17" rx="83.92" ry="5.87"/><polygon class="cls-10" points="132.35 144.62 96.23 214.94 132.35 214.94 139.82 214.94 169.93 214.94 204.61 144.62 132.35 144.62"/><polygon class="cls-8" points="145.1 169.42 134.46 190.14 145.1 190.14 147.3 190.14 156.16 190.14 166.38 169.42 145.1 169.42"/><polygon class="cls-10" points="153.53 169.42 142.89 190.14 143.9 190.14 146.09 190.14 146.65 190.14 156.86 169.42 153.53 169.42"/><polygon class="cls-11" points="204.61 144.62 168.48 214.94 191.12 214.94 204.61 173.04 204.61 144.62"/><polygon class="cls-10" points="204.61 144.62 240.74 214.94 218.1 214.94 204.61 173.04 204.61 144.62"/><path class="cls-12" d="M204.61,74.79L191.12,116.7s-9.15-5.3-8.67-15.17C182.45,101.53,199.79,84.91,204.61,74.79Z" transform="translate(0 98.24)"/><path class="cls-13" d="M204.61,74.79L218.1,116.7s9.15-5.3,8.67-15.17C226.77,101.53,209.43,84.91,204.61,74.79Z" transform="translate(0 98.24)"/><polygon class="cls-9" points="204.61 173.04 204.61 214.94 218.1 214.94 204.61 173.04"/><polygon class="cls-8" points="191.12 214.94 204.61 214.94 204.61 173.04 191.12 214.94"/><rect class="cls-10" x="136.4" y="178.17" width="26.94" height="3.21"/><path class="cls-1" d="M121.7,121.76v10h2.37v-9.47A6.13,6.13,0,0,1,121.7,121.76Z" transform="translate(0 98.24)"/><path class="cls-2" d="M124.07,131.72h2.37v-10a6.13,6.13,0,0,1-2.37.48v9.47Z" transform="translate(0 98.24)"/><path class="cls-3" d="M124.07,81.07v41.18a6.13,6.13,0,0,0,2.37-.48c3.57-1.48,6.18-6.23,6.18-11.87C132.62,103.07,128.79,81.07,124.07,81.07Z" transform="translate(0 98.24)"/><path class="cls-4" d="M124.07,81.07c-4.72,0-8.54,22-8.54,28.83,0,5.63,2.61,10.38,6.18,11.87a6.13,6.13,0,0,0,2.37.48V81.07Z" transform="translate(0 98.24)"/><ellipse class="cls-7" cx="166.51" cy="224.28" rx="17.73" ry="1.83"/><path class="cls-4" d="M166.51,126v-9.76c-3.47,0-6,3-6,4.25,0,0-3.86-.06-5,2.69,0,0-4.48-.6-5,2.81h15.93Z" transform="translate(0 98.24)"/><path class="cls-3" d="M166.51,126v-9.76c3.47,0,6,3,6,4.25,0,0,3.86-.06,5,2.69,0,0,4.48-.6,5,2.81H166.51Z" transform="translate(0 98.24)"/><rect class="cls-14" x="35.1" width="618.47" height="253.59"/></svg>