<svg id="Layer_1" data-name="Layer 1" xmlns="http://www.w3.org/2000/svg" viewBox="0 0 422.15 176.84"><defs><style>.cls-1{fill:#719395;}.cls-2{fill:#7f8670;}.cls-3{fill:#6d7360;}.cls-4{fill:#e7edf0;}.cls-5{fill:#fff;}</style></defs><title>mountains</title><path class="cls-1" d="M368.38,169.7L268.49,58.47a10.61,10.61,0,0,0-1-1A12.4,12.4,0,0,0,265,55.84a17.77,17.77,0,0,0-15.1,0,12.4,12.4,0,0,0-2.47,1.62,10.61,10.61,0,0,0-1,1l-10.75,12L146.47,169.7c-5.57,6.2.7,14.33,11.06,14.33H357.31C367.67,184,373.95,175.9,368.38,169.7Z" transform="translate(0 -7.19)"/><path class="cls-1" d="M224,165.13L124.1,53.91a10.61,10.61,0,0,0-1-1,12.4,12.4,0,0,0-2.47-1.62,17.77,17.77,0,0,0-15.1,0A12.4,12.4,0,0,0,103,52.9a10.62,10.62,0,0,0-1,1l-10.75,12L2.08,165.13c-5.57,6.2.7,14.33,11.06,14.33H212.92C223.28,179.46,229.55,171.34,224,165.13Z" transform="translate(0 -7.19)"/><path class="cls-2" d="M190.36,39a6.05,6.05,0,0,1-8.07-1.46c-1.65-2.35-1.64-6-4.14-7.38-2.22-1.26-5,.07-7.08,1.54s-4.45,3.18-6.94,2.63a3.19,3.19,0,0,1-1-.38L80,140.51c-5.58,7.16.7,16.54,11.09,16.54H191.26V38.25A6.85,6.85,0,0,1,190.36,39Z" transform="translate(0 -7.19)"/><path class="cls-3" d="M302.47,140.51L202.35,12.16,217.81,32a2.46,2.46,0,0,1-1,.15C215.49,32,214.32,30.83,213,31c-2.15.25-2.37,3.26-3.54,5.08a4.5,4.5,0,0,1-6.14,1.2c-1.73-1.22-2.55-3.67-4.58-4.27-1.73-.51-3.53.63-4.73,2-0.94,1.06-1.71,2.29-2.72,3.26v118.8H291.38C301.77,157.05,308.06,147.67,302.47,140.51Z" transform="translate(0 -7.19)"/><path class="cls-4" d="M194,35c1.2-1.35,3-2.49,4.73-2,2,0.59,2.85,3,4.58,4.27a4.5,4.5,0,0,0,6.14-1.2c1.17-1.82,1.39-4.83,3.54-5.08,1.35-.16,2.52,1.05,3.88,1.13a2.46,2.46,0,0,0,1-.15L202.35,12.16A11.76,11.76,0,0,0,200.12,10a13.25,13.25,0,0,0-2.69-1.55A14.64,14.64,0,0,0,196,7.89a15.94,15.94,0,0,0-4.7-.7V38.25C192.26,37.27,193,36,194,35Z" transform="translate(0 -7.19)"/><path class="cls-5" d="M171.08,31.71c2.09-1.47,4.86-2.8,7.08-1.54,2.5,1.42,2.49,5,4.14,7.38A6.05,6.05,0,0,0,190.36,39a6.85,6.85,0,0,0,.9-0.75V7.19a15.94,15.94,0,0,0-4.7.7,14.65,14.65,0,0,0-1.47.54A13.25,13.25,0,0,0,182.39,10a11.77,11.77,0,0,0-2.23,2.18l-17,21.8a3.19,3.19,0,0,0,1,.38C166.63,34.89,169,33.17,171.08,31.71Z" transform="translate(0 -7.19)"/><path class="cls-3" d="M420.07,153.18L320.18,41.95l12.68,14.12c-0.17.22-.34,0.44-0.53,0.64a4.59,4.59,0,0,0-6.69,3c-0.16,1,0,2-.1,3-0.45,3.47-5.46,5.28-8,2.89-1.62-1.51-2.21-4.14-4.26-5a4.15,4.15,0,0,0-4.14.91v106H409C419.37,167.51,425.64,159.38,420.07,153.18Z" transform="translate(0 -7.19)"/><path class="cls-2" d="M307.55,63.19c-1.26,1.89-2,4.16-3.59,5.76-2.12,2.12-6,2.47-8,.25-3-3.3-.09-8.49-0.42-12.94a3.85,3.85,0,0,0-.93-2.47c-1.78-1.79-4.7,0-7.26.12l-89.14,99.26c-5.57,6.2.7,14.33,11.06,14.33h99.89v-106A7.58,7.58,0,0,0,307.55,63.19Z" transform="translate(0 -7.19)"/><path class="cls-5" d="M294.57,53.8a3.85,3.85,0,0,1,.93,2.47c0.33,4.44-2.57,9.64.42,12.94,2,2.22,5.91,1.86,8-.25,1.61-1.6,2.33-3.87,3.59-5.76a7.58,7.58,0,0,1,1.57-1.7V37.64a17.07,17.07,0,0,0-7.55,1.68,12.4,12.4,0,0,0-2.47,1.62,10.61,10.61,0,0,0-1,1l-10.75,12C289.87,53.81,292.79,52,294.57,53.8Z" transform="translate(0 -7.19)"/><path class="cls-4" d="M309.12,37.5V61.35a4.15,4.15,0,0,1,4.14-.91c2,0.85,2.64,3.47,4.26,5,2.56,2.39,7.57.59,8-2.89,0.13-1-.06-2,0.1-3a4.59,4.59,0,0,1,6.69-3c0.18-.21.36-0.43,0.53-0.64L320.18,41.81a10.62,10.62,0,0,0-1-1,12.4,12.4,0,0,0-2.47-1.62A17.07,17.07,0,0,0,309.12,37.5Z" transform="translate(0 -7.19)"/></svg>