<svg id="Layer_1" data-name="Layer 1" xmlns="http://www.w3.org/2000/svg" viewBox="0 0 119.2 85.91"><defs><style>.cls-1{fill:#f6b01a;}.cls-2{fill:#f6d10e;}.cls-3{fill:#e9a322;}.cls-4{fill:#e9c31e;}.cls-5{fill:#f1f0f0;}.cls-6{fill:#fff;}</style></defs><title>clouds_partially</title><polygon class="cls-1" points="38.84 0 42.02 3.63 45.79 0.63 48.26 4.77 52.51 2.48 54.2 7 58.79 5.5 59.57 10.25 64.28 9.6 64.28 14.42 69.17 14.64 68.34 19.39 73.06 20.46 71.38 24.97 75.82 26.87 73.35 31.01 77.37 33.66 74.2 37.29 77.69 40.63 73.92 43.63 76.75 47.53 72.5 49.82 74.6 54.16 70.01 55.65 71.29 60.3 66.51 60.95 66.95 65.75 62.13 65.53 61.7 70.34 57 69.27 55.71 73.91 51.28 72.02 49.19 76.36 45.16 73.7 42.33 77.61 38.84 74.27 35.36 77.61 32.52 73.7 28.5 76.36 26.41 72.02 21.97 73.91 20.69 69.27 15.99 70.34 15.56 65.53 10.74 65.75 11.17 60.95 6.39 60.3 7.68 55.65 3.09 54.16 5.18 49.82 0.94 47.53 3.77 43.63 0 40.63 3.49 37.29 0.31 33.66 4.34 31.01 1.86 26.87 6.3 24.97 4.6 20.46 9.31 19.39 8.45 14.64 13.28 14.42 13.28 9.6 18.05 10.25 18.9 5.5 23.49 7 25.18 2.48 29.43 4.77 31.9 0.63 35.67 3.63 38.84 0"/><circle class="cls-2" cx="38.84" cy="38.88" r="28.74"/><polyline class="cls-3" points="38.84 0 42.02 3.63 45.79 0.63 48.26 4.77 52.51 2.48 54.2 7 58.79 5.5 59.57 10.25 64.28 9.6 64.28 14.42 69.17 14.64 68.34 19.39 73.06 20.46 71.38 24.97 75.82 26.87 73.35 31.01 77.37 33.66 74.2 37.29 77.69 40.63 73.92 43.63 76.75 47.53 72.5 49.82 74.6 54.16 70.01 55.65 71.29 60.3 66.51 60.95 66.95 65.75 62.13 65.53 61.7 70.34 57 69.27 55.71 73.91 51.28 72.02 49.19 76.36 45.16 73.7 42.33 77.61 38.84 74.27"/><path class="cls-4" d="M52.51,17.58a28.74,28.74,0,0,1,0,57.49" transform="translate(-13.67 -7.44)"/><path class="cls-5" d="M121.63,59.78A30.86,30.86,0,0,0,82.37,33.35a30.9,30.9,0,0,1,22.11,26.43,17.33,17.33,0,0,1-6.41,33.56h17.15A17.33,17.33,0,0,0,121.63,59.78Z" transform="translate(-13.67 -7.44)"/><path class="cls-6" d="M115.72,76a17.47,17.47,0,0,0-11.24-16.31A30.81,30.81,0,0,0,82.37,33.29a30.94,30.94,0,0,0-14.14,8.77A20.19,20.19,0,0,0,40.89,58.63a17.38,17.38,0,0,0,1.45,34.71H98.07A17.42,17.42,0,0,0,115.72,76Z" transform="translate(-13.67 -7.44)"/></svg>