<svg id="Layer_1" data-name="Layer 1" xmlns="http://www.w3.org/2000/svg" viewBox="0 0 121.27 66.03"><defs><style>.cls-1{fill:#fff;}.cls-2{fill:#010101;opacity:0.03;}.cls-3{fill:#f4f4f4;}</style></defs><title>cloud_dark</title><path class="cls-1" d="M91.21,43.34A24.64,24.64,0,0,0,60,22.21l-0.09,0a24.7,24.7,0,0,0-11.29,7A16.12,16.12,0,0,0,26.75,42.42,14,14,0,0,0,27.9,70.3H86.1A13.94,13.94,0,0,0,91.21,43.34Z" transform="translate(-13.81 -21.27)"/><path class="cls-2" d="M91.21,43.34a24.65,24.65,0,0,0-31.35-21.1,24.67,24.67,0,0,1,17.66,21.1,13.84,13.84,0,0,1-5.12,26.8H86.1A13.84,13.84,0,0,0,91.21,43.34Z" transform="translate(-13.81 -21.27)"/><path class="cls-3" d="M124.82,56.52A28.15,28.15,0,0,0,89.11,32.38l-0.1,0a28.22,28.22,0,0,0-12.9,8A18.42,18.42,0,0,0,51.16,55.47,15.94,15.94,0,0,0,52.48,87.3H119A15.91,15.91,0,0,0,124.82,56.52Z" transform="translate(-13.81 -21.27)"/><path class="cls-2" d="M124.82,56.52A28.16,28.16,0,0,0,89,32.41a28.19,28.19,0,0,1,20.18,24.11,15.81,15.81,0,0,1-5.85,30.62H119A15.81,15.81,0,0,0,124.82,56.52Z" transform="translate(-13.81 -21.27)"/></svg>