<svg id="Layer_1" data-name="Layer 1" xmlns="http://www.w3.org/2000/svg" viewBox="0 0 93.91 80.53"><defs><style>.cls-1{fill:#fff;}.cls-2{fill:#010101;opacity:0.03;}.cls-3{fill:#f4f4f4;}.cls-4{fill:#f7f8f8;}</style></defs><title>heavy_rain</title><path class="cls-1" d="M60.8,24.06A19.08,19.08,0,0,0,36.6,7.7l-0.07,0a19.13,19.13,0,0,0-8.74,5.42A12.48,12.48,0,0,0,10.88,23.35a11.1,11.1,0,0,0,.9,22.15H56.84A11.13,11.13,0,0,0,60.8,24.06Z" transform="translate(-0.86 -6.97)"/><path class="cls-2" d="M60.8,24.06A19.09,19.09,0,0,0,36.53,7.72,19.1,19.1,0,0,1,50.2,24.06a10.72,10.72,0,0,1-4,20.75h10.6A10.72,10.72,0,0,0,60.8,24.06Z" transform="translate(-0.86 -6.97)"/><path class="cls-3" d="M86.83,34.27A21.8,21.8,0,0,0,59.17,15.57l-0.08,0a21.86,21.86,0,0,0-10,6.2A14.26,14.26,0,0,0,29.79,33.45a12.55,12.55,0,0,0,1,25H82.3A12.56,12.56,0,0,0,86.83,34.27Z" transform="translate(-0.86 -6.97)"/><path class="cls-2" d="M86.83,34.27A21.81,21.81,0,0,0,59.09,15.59,21.83,21.83,0,0,1,74.71,34.27,12.25,12.25,0,0,1,70.19,58H82.3A12.25,12.25,0,0,0,86.83,34.27Z" transform="translate(-0.86 -6.97)"/><path class="cls-1" d="M81.26,70.12a4.28,4.28,0,0,1-8.55,0c0-2.36,4.28-6.68,4.28-6.68s4.28,4.31,4.28,6.68" transform="translate(-0.86 -6.97)"/><path class="cls-4" d="M77,63.44v11a4.28,4.28,0,0,0,4.28-4.28c0-2.36-4.28-6.68-4.28-6.68" transform="translate(-0.86 -6.97)"/><path class="cls-1" d="M61.84,70.12a4.28,4.28,0,1,1-8.55,0c0-2.36,4.28-6.68,4.28-6.68s4.28,4.31,4.28,6.68" transform="translate(-0.86 -6.97)"/><path class="cls-4" d="M57.56,63.44v11a4.28,4.28,0,0,0,4.28-4.28c0-2.36-4.28-6.68-4.28-6.68" transform="translate(-0.86 -6.97)"/><path class="cls-1" d="M42.42,70.12a4.28,4.28,0,1,1-8.55,0c0-2.36,4.28-6.68,4.28-6.68s4.28,4.31,4.28,6.68" transform="translate(-0.86 -6.97)"/><path class="cls-4" d="M38.15,63.44v11a4.28,4.28,0,0,0,4.28-4.28c0-2.36-4.28-6.68-4.28-6.68" transform="translate(-0.86 -6.97)"/><path class="cls-1" d="M71.55,83.22a4.28,4.28,0,0,1-8.55,0c0-2.36,4.28-6.68,4.28-6.68s4.28,4.31,4.28,6.68" transform="translate(-0.86 -6.97)"/><path class="cls-4" d="M67.27,76.55v11a4.28,4.28,0,0,0,4.28-4.28c0-2.36-4.28-6.68-4.28-6.68" transform="translate(-0.86 -6.97)"/><path class="cls-1" d="M52.13,83.22a4.28,4.28,0,1,1-8.55,0c0-2.36,4.28-6.68,4.28-6.68s4.28,4.31,4.28,6.68" transform="translate(-0.86 -6.97)"/><path class="cls-4" d="M47.86,76.55v11a4.28,4.28,0,0,0,4.28-4.28c0-2.36-4.28-6.68-4.28-6.68" transform="translate(-0.86 -6.97)"/><path class="cls-1" d="M23,70.12a4.28,4.28,0,1,1-8.55,0c0-2.36,4.28-6.68,4.28-6.68S23,67.76,23,70.12" transform="translate(-0.86 -6.97)"/><path class="cls-4" d="M18.73,63.44v11A4.28,4.28,0,0,0,23,70.12c0-2.36-4.28-6.68-4.28-6.68" transform="translate(-0.86 -6.97)"/><path class="cls-1" d="M32.72,83.22a4.28,4.28,0,1,1-8.55,0c0-2.36,4.28-6.68,4.28-6.68s4.28,4.31,4.28,6.68" transform="translate(-0.86 -6.97)"/><path class="cls-4" d="M28.44,76.55v11a4.28,4.28,0,0,0,4.28-4.28c0-2.36-4.28-6.68-4.28-6.68" transform="translate(-0.86 -6.97)"/></svg>