<svg id="Layer_1" data-name="Layer 1" xmlns="http://www.w3.org/2000/svg" viewBox="0 0 96.56 90.75"><defs><style>.cls-1{fill:#f1f0f0;}.cls-2{fill:#fff;}.cls-3{fill:#f7f8f8;}</style></defs><title>mist</title><path class="cls-1" d="M86.8,26.67a27.55,27.55,0,0,0-35-23.59A27.58,27.58,0,0,1,71.49,26.67a15.47,15.47,0,0,1-5.72,30H81.07A15.47,15.47,0,0,0,86.8,26.67Z" transform="translate(-0.27 -2)"/><path class="cls-2" d="M81.53,41.11a15.6,15.6,0,0,0-10-14.56A27.5,27.5,0,0,0,51.75,3a27.62,27.62,0,0,0-12.62,7.83,18,18,0,0,0-24.41,14.8,15.51,15.51,0,0,0,1.3,31H65.77A15.55,15.55,0,0,0,81.53,41.11Z" transform="translate(-0.27 -2)"/><path class="cls-2" d="M78.89,71.6a5.2,5.2,0,0,1-10.41,0c0-2.87,5.2-8.12,5.2-8.12s5.2,5.25,5.2,8.12" transform="translate(-0.27 -2)"/><path class="cls-3" d="M73.69,63.47V76.8a5.2,5.2,0,0,0,5.2-5.2c0-2.87-5.2-8.12-5.2-8.12" transform="translate(-0.27 -2)"/><path class="cls-2" d="M55.26,71.6a5.2,5.2,0,1,1-10.41,0c0-2.87,5.2-8.12,5.2-8.12s5.2,5.25,5.2,8.12" transform="translate(-0.27 -2)"/><path class="cls-3" d="M50.06,63.47V76.8a5.2,5.2,0,0,0,5.2-5.2c0-2.87-5.2-8.12-5.2-8.12" transform="translate(-0.27 -2)"/><path class="cls-2" d="M31.63,71.6a5.2,5.2,0,1,1-10.41,0c0-2.87,5.2-8.12,5.2-8.12s5.2,5.25,5.2,8.12" transform="translate(-0.27 -2)"/><path class="cls-3" d="M26.43,63.47V76.8a5.2,5.2,0,0,0,5.2-5.2c0-2.87-5.2-8.12-5.2-8.12" transform="translate(-0.27 -2)"/><path class="cls-2" d="M67.08,87.54a5.2,5.2,0,0,1-10.41,0c0-2.87,5.2-8.12,5.2-8.12s5.2,5.25,5.2,8.12" transform="translate(-0.27 -2)"/><path class="cls-3" d="M61.87,79.42V92.75a5.2,5.2,0,0,0,5.2-5.2c0-2.87-5.2-8.12-5.2-8.12" transform="translate(-0.27 -2)"/><path class="cls-2" d="M43.45,87.54a5.2,5.2,0,1,1-10.41,0c0-2.87,5.2-8.12,5.2-8.12s5.2,5.25,5.2,8.12" transform="translate(-0.27 -2)"/><path class="cls-3" d="M38.24,79.42V92.75a5.2,5.2,0,0,0,5.2-5.2c0-2.87-5.2-8.12-5.2-8.12" transform="translate(-0.27 -2)"/></svg>