<svg id="Layer_1" data-name="Layer 1" xmlns="http://www.w3.org/2000/svg" viewBox="0 0 93.17 93.07"><defs><style>.cls-1{fill:#f6b01a;}.cls-2{fill:#f6d10e;}.cls-3{fill:#e9a322;}.cls-4{fill:#e9c31e;}</style></defs><title>sun</title><polygon class="cls-1" points="46.58 0 50.39 4.36 54.91 0.75 57.88 5.71 62.97 2.97 65 8.39 70.5 6.6 70.98 12.29 76.16 11.52 76.16 17.3 82.49 17.56 81.73 23.25 87.51 24.53 85.55 29.95 90.9 32.22 87.95 37.19 92.78 40.37 88.98 44.73 93.17 48.72 88.64 52.33 92.05 57.01 86.95 59.75 89.46 64.96 83.96 66.75 85.5 72.32 79.77 73.09 80.29 78.86 74.51 78.6 73.99 84.36 68.35 83.07 66.82 88.64 61.5 86.37 58.99 91.58 54.16 88.39 50.76 93.07 46.58 89.08 42.4 93.07 39.01 88.39 34.18 91.58 31.67 86.37 26.35 88.64 24.81 83.07 19.18 84.36 18.66 78.6 12.88 78.86 13.4 73.09 7.67 72.32 9.21 66.75 3.71 64.96 6.22 59.75 1.12 57.01 4.52 52.33 0 48.72 4.18 44.73 0.38 40.37 5.2 37.19 2.23 32.22 7.55 29.95 5.52 24.53 11.16 23.25 9.75 17.56 15.16 17.3 15.16 11.52 21.26 12.29 22.48 6.6 28.07 8.39 30.15 2.97 35.27 5.71 38.25 0.75 42.77 4.36 46.58 0"/><circle class="cls-2" cx="46.58" cy="46.63" r="34.47"/><polyline class="cls-3" points="46.58 0 50.39 4.36 54.91 0.75 57.88 5.71 62.97 2.97 65 8.39 70.5 6.6 70.98 12.29 76.16 11.52 76.16 17.3 82.49 17.56 81.73 23.25 87.51 24.53 85.55 29.95 90.9 32.22 87.95 37.19 92.78 40.37 88.98 44.73 93.17 48.72 88.64 52.33 92.05 57.01 86.95 59.75 89.46 64.96 83.96 66.75 85.5 72.32 79.77 73.09 80.29 78.86 74.51 78.6 73.99 84.36 68.35 83.07 66.82 88.64 61.5 86.37 58.99 91.58 54.16 88.39 50.76 93.07 46.58 89.08"/><path class="cls-4" d="M48.67,13.7a34.47,34.47,0,1,1,0,68.94" transform="translate(-2.09 -1.54)"/></svg>