<svg id="Layer_1" data-name="Layer 1" xmlns="http://www.w3.org/2000/svg" viewBox="0 0 88.75 92.48"><defs><style>.cls-1{fill:#f1f0f0;}.cls-2{fill:#fff;}.cls-3{fill:#f6d10e;}.cls-4{fill:#e9c31e;}</style></defs><title>thunder</title><path class="cls-1" d="M83.28,24.57A25.32,25.32,0,0,0,51.07,2.89,25.35,25.35,0,0,1,69.21,24.57,14.22,14.22,0,0,1,64,52.1H78A14.22,14.22,0,0,0,83.28,24.57Z" transform="translate(-3.75 -1.89)"/><path class="cls-2" d="M78.43,37.84a14.34,14.34,0,0,0-9.22-13.38A25.28,25.28,0,0,0,51.07,2.83,25.39,25.39,0,0,0,39.47,10,16.56,16.56,0,0,0,17,23.62,14.25,14.25,0,0,0,18.23,52.1H64A14.29,14.29,0,0,0,78.43,37.84Z" transform="translate(-3.75 -1.89)"/><polygon class="cls-3" points="34.82 92.29 60.66 71.61 54.92 71.61 49.34 71.61 56.84 55.61 51.09 55.61 36.73 55.61 28.12 80.61 32.9 80.61 38.65 80.61 36.74 86.43 34.82 92.29"/><polygon class="cls-4" points="60.66 71.61 54.92 71.61 36.74 86.04 34.82 92.48 60.66 71.61"/><polygon class="cls-4" points="49.34 71.61 56.84 55.61 51.09 55.61 43.59 71.61 49.34 71.61"/></svg>